<svg width="22" height="22" viewBox="0 0 22 22" fill="none" xmlns="http://www.w3.org/2000/svg">
<path d="M1.5 16.4999C1.699 17.5939 2.05 18.3989 2.67 19.0349C4.1 20.4999 6.4 20.4999 11 20.4999C15.6 20.4999 17.9 20.4999 19.33 19.0349C19.95 18.3989 20.302 17.5939 20.5 16.4999M1.751 5.3099C1.945 4.2679 2.287 3.5009 2.891 2.8949C3.496 2.2889 4.261 1.9449 5.3 1.7519M1.505 12.9999C1.5 12.4139 1.5 11.7119 1.5 11.0259C1.5 10.3399 1.5 9.5759 1.505 8.9889M9.1 1.5049C9.68333 1.5009 10.3167 1.49923 11 1.4999C11.6833 1.49923 12.3167 1.5009 12.9 1.5049M16.7 1.7519C17.74 1.9459 18.504 2.2889 19.109 2.8949C19.714 3.5009 20.055 4.2679 20.249 5.3099M20.495 12.9999C20.5 12.4139 20.5 11.7119 20.5 11.0259C20.5 10.3399 20.5 9.5759 20.495 8.9889M1.5 10.9999H3M19 10.9999H20.5M11 13.9999V7.9999M11 3.4689V1.9999M8 10.9999H14" stroke="black" stroke-width="1.5" stroke-linecap="round" stroke-linejoin="round"/>
</svg>
