<svg width="22" height="22" viewBox="0 0 22 22" fill="none" xmlns="http://www.w3.org/2000/svg">
<path d="M1.5 6H6.25M20.5 6H15.75M1.5 11C1.5 6.522 1.5 4.282 2.891 2.891C4.282 1.5 6.521 1.5 11 1.5C15.478 1.5 17.718 1.5 19.109 2.891C20.5 4.282 20.5 6.521 20.5 11C20.5 15.478 20.5 17.718 19.109 19.109C17.718 20.5 15.479 20.5 11 20.5C6.522 20.5 4.282 20.5 2.891 19.109C1.5 17.718 1.5 15.479 1.5 11Z" stroke="black" stroke-width="1.5" stroke-linecap="round" stroke-linejoin="round"/>
<path d="M11 13H11.009M6 6H16V6.5C16 7.914 16 8.621 15.56 9.06C15.121 9.5 14.414 9.5 13 9.5H9C7.586 9.5 6.879 9.5 6.44 9.06C6 8.622 6 7.915 6 6.5V6Z" stroke="black" stroke-width="1.5" stroke-linecap="round" stroke-linejoin="round"/>
</svg>
