<svg width="20" height="22" viewBox="0 0 20 22" fill="none" xmlns="http://www.w3.org/2000/svg">
<path d="M10 21C5.757 21 3.636 21 2.318 19.535C1 18.072 1 15.714 1 11C1 6.286 1 3.929 2.318 2.464C3.636 0.999 5.758 1 10 1C14.242 1 16.364 1 17.682 2.464C19 3.93 19 6.286 19 11C19 15.714 19 18.071 17.682 19.535C16.364 20.999 14.242 21 10 21Z" stroke="black" stroke-width="1.5" stroke-linecap="round" stroke-linejoin="round"/>
<path d="M6 1.5V8.826C6 10.073 6 10.696 6.386 10.92C7.135 11.352 8.538 9.91 9.205 9.476C9.592 9.224 9.785 9.098 10 9.098C10.215 9.098 10.408 9.224 10.795 9.476C11.462 9.91 12.865 11.352 13.614 10.92C14 10.697 14 10.073 14 8.826V1.5" stroke="black" stroke-width="1.5" stroke-linecap="round" stroke-linejoin="round"/>
</svg>
