<svg width="20" height="22" viewBox="0 0 20 22" fill="none" xmlns="http://www.w3.org/2000/svg">
<path d="M18.5 15.929V9C18.5 5.229 18.5 3.343 17.328 2.172C16.156 1.001 14.271 1 10.5 1H9.5C5.729 1 3.843 1 2.672 2.172C1.501 3.344 1.5 5.229 1.5 9V18.5" stroke="black" stroke-width="1.5" stroke-linecap="round" stroke-linejoin="round"/>
<path d="M6 2V5.69C6 6.43 6 6.8 6.238 6.944C6.24733 6.95067 6.258 6.95633 6.27 6.961C6.518 7.087 6.841 6.897 7.489 6.516C7.973 6.232 8.214 6.089 8.481 6.084H8.518C8.786 6.089 9.028 6.232 9.511 6.516C10.159 6.897 10.482 7.087 10.731 6.961L10.761 6.944C11 6.8 11 6.43 11 5.69V2M18.5 16H4C3.33696 16 2.70107 16.2634 2.23223 16.7322C1.76339 17.2011 1.5 17.837 1.5 18.5C1.5 19.163 1.76339 19.7989 2.23223 20.2678C2.70107 20.7366 3.33696 21 4 21H18.5" stroke="black" stroke-width="1.5" stroke-linecap="round" stroke-linejoin="round"/>
<path d="M18.5 16C17.837 16 17.2011 16.2634 16.7322 16.7322C16.2634 17.2011 16 17.837 16 18.5C16 19.163 16.2634 19.7989 16.7322 20.2678C17.2011 20.7366 17.837 21 18.5 21" stroke="black" stroke-width="1.5" stroke-linecap="round" stroke-linejoin="round"/>
</svg>
