<svg width="18" height="22" viewBox="0 0 18 22" fill="none" xmlns="http://www.w3.org/2000/svg">
<path d="M2.14302 13C1.39267 11.7712 0.997071 10.3588 1.00002 8.919C1.00002 4.545 4.58202 1 9.00002 1C13.418 1 17 4.545 17 8.919C17.003 10.3588 16.6074 11.7712 15.857 13" stroke="black" stroke-width="1.5" stroke-linecap="round" stroke-linejoin="round"/>
<path d="M11.0001 9C10.3871 9.643 9.71112 10 9.00012 10M9.00012 10C8.28912 10 7.61312 9.643 7.00012 9M9.00012 10V14.5M12.0001 18L11.8701 18.647C11.7301 19.354 11.6591 19.707 11.5001 19.987C11.2551 20.4186 10.8584 20.7436 10.3871 20.899C10.0821 21 9.72012 21 9.00012 21C8.28012 21 7.91812 21 7.61312 20.9C7.14166 20.7444 6.74494 20.4189 6.50012 19.987C6.34112 19.707 6.27012 19.354 6.13012 18.647L6.00012 18M4.38312 16.098C4.29112 15.822 4.24512 15.683 4.25012 15.571C4.25578 15.4552 4.29487 15.3435 4.36266 15.2494C4.43046 15.1554 4.52405 15.083 4.63212 15.041C4.73612 15 4.88212 15 5.17212 15H12.8281C13.1191 15 13.2641 15 13.3681 15.04C13.4763 15.0821 13.57 15.1546 13.6378 15.2489C13.7057 15.3431 13.7447 15.455 13.7501 15.571C13.7551 15.683 13.7091 15.821 13.6171 16.098C13.4471 16.609 13.3621 16.865 13.2311 17.072C12.9571 17.5046 12.5276 17.8156 12.0311 17.941C11.7931 18 11.5251 18 10.9881 18H7.01212C6.47512 18 6.20612 18 5.96912 17.94C5.47279 17.8149 5.04331 17.5042 4.76912 17.072C4.63812 16.865 4.55312 16.609 4.38312 16.098Z" stroke="black" stroke-width="1.5" stroke-linecap="round" stroke-linejoin="round"/>
</svg>
