<svg width="28" height="22" viewBox="0 0 28 22" fill="none" xmlns="http://www.w3.org/2000/svg">
<path d="M23.375 17.875C23.375 18.7038 23.0458 19.4987 22.4597 20.0847C21.8737 20.6708 21.0788 21 20.25 21C19.4212 21 18.6263 20.6708 18.0403 20.0847C17.4542 19.4987 17.125 18.7038 17.125 17.875C17.125 17.0462 17.4542 16.2513 18.0403 15.6653C18.6263 15.0792 19.4212 14.75 20.25 14.75C21.0788 14.75 21.8737 15.0792 22.4597 15.6653C23.0458 16.2513 23.375 17.0462 23.375 17.875ZM10.875 17.875C10.875 18.7038 10.5458 19.4987 9.95971 20.0847C9.37366 20.6708 8.5788 21 7.75 21C6.9212 21 6.12634 20.6708 5.54029 20.0847C4.95424 19.4987 4.625 18.7038 4.625 17.875C4.625 17.0462 4.95424 16.2513 5.54029 15.6653C6.12634 15.0792 6.9212 14.75 7.75 14.75C8.5788 14.75 9.37366 15.0792 9.95971 15.6653C10.5458 16.2513 10.875 17.0462 10.875 17.875Z" stroke="#2301F4" stroke-width="1.5" stroke-linecap="round" stroke-linejoin="round"/>
<path d="M17.125 17.875H10.875M23.375 17.875H24.3288C24.6038 17.875 24.7412 17.875 24.8562 17.86C25.2701 17.8085 25.6549 17.6205 25.9499 17.3257C26.2448 17.031 26.4332 16.6463 26.485 16.2325C26.5 16.1163 26.5 15.9787 26.5 15.7037V12.25C26.5 10.0951 25.644 8.02849 24.1202 6.50476C22.5965 4.98102 20.5299 4.125 18.375 4.125M1.5 1H14C15.7675 1 16.6513 1 17.2 1.55C17.75 2.0975 17.75 2.98125 17.75 4.75V15.375M1.5 11.9375V14.75C1.5 15.9188 1.5 16.5025 1.75125 16.9375C1.91581 17.2225 2.15249 17.4592 2.4375 17.6237C2.8725 17.875 3.45625 17.875 4.625 17.875M1.5 4.75H9M1.5 8.5H6.5" stroke="#2301F4" stroke-width="1.5" stroke-linecap="round" stroke-linejoin="round"/>
</svg>
