<svg width="22" height="22" viewBox="0 0 22 22" fill="none" xmlns="http://www.w3.org/2000/svg">
<path d="M17 1V3M5 1V3M9 16V12.347C9 12.156 8.863 12 8.695 12H8M12.63 16L13.984 12.35C14.047 12.179 13.913 12 13.721 12H12" stroke="black" stroke-width="1.5" stroke-linecap="round" stroke-linejoin="round"/>
<path d="M5 7H17M1.5 11.243C1.5 6.886 1.5 4.707 2.752 3.353C4.004 2 6.02 2 10.05 2H11.95C15.98 2 17.996 2 19.248 3.354C20.5 4.707 20.5 6.886 20.5 11.244V11.757C20.5 16.114 20.5 18.293 19.248 19.647C17.996 21 15.98 21 11.95 21H10.05C6.02 21 4.004 21 2.752 19.646C1.5 18.293 1.5 16.114 1.5 11.756V11.243Z" stroke="black" stroke-width="1.5" stroke-linecap="round" stroke-linejoin="round"/>
</svg>
