<svg width="22" height="22" viewBox="0 0 22 22" fill="none" xmlns="http://www.w3.org/2000/svg">
<path d="M15.964 7.982C15.961 5.032 15.917 3.504 15.058 2.458C14.8923 2.2557 14.707 2.07014 14.505 1.904C13.4 1 11.76 1 8.48005 1C5.20005 1 3.56005 1 2.45605 1.905C2.25404 2.07114 2.06882 2.2567 1.90305 2.459C0.998047 3.56 0.998047 5.2 0.998047 8.48C0.998047 11.76 0.998047 13.4 1.90405 14.503C2.07071 14.7057 2.25505 14.89 2.45705 15.056C3.50405 15.916 5.03205 15.96 7.98205 15.962" stroke="black" stroke-width="1.5" stroke-linecap="round" stroke-linejoin="round"/>
<path d="M13.0279 8.02505L15.9939 7.98206M13.0139 21.0021L15.9799 20.9591M20.9719 13.0221L20.9439 15.9821M8.00993 13.0361L7.98193 15.9961M10.4869 8.02505C9.65493 8.17405 8.31693 8.32706 8.00993 10.0491M18.4949 20.9591C19.3299 20.8221 20.6689 20.6891 21.0029 18.9731M18.4949 8.02505C19.3269 8.17405 20.6649 8.32706 20.9719 10.0491M10.4999 20.9571C9.66693 20.8091 8.32993 20.6561 8.02193 18.9341" stroke="black" stroke-width="1.5" stroke-linecap="round" stroke-linejoin="round"/>
</svg>
