<svg width="23" height="23" viewBox="0 0 23 23" fill="none" xmlns="http://www.w3.org/2000/svg">
<g clip-path="url(#clip0_314_52)">
<path fill-rule="evenodd" clip-rule="evenodd" d="M0 18.0714C0 19.4317 1.10071 20.5357 2.461 20.5357H20.539C21.8993 20.5357 23 19.4317 23 18.0714V14.7298C23.0002 14.5493 22.9409 14.3738 22.8313 14.2304C22.7217 14.0869 22.568 13.9836 22.3938 13.9363C21.8592 13.7907 21.3873 13.4733 21.0508 13.033C20.7144 12.5928 20.5322 12.054 20.5322 11.4999C20.5322 10.9458 20.7144 10.4071 21.0508 9.96685C21.3873 9.52657 21.8592 9.20917 22.3938 9.06359C22.568 9.0163 22.7217 8.91296 22.8313 8.76953C22.9409 8.62611 23.0002 8.45058 23 8.27009V4.92852C23 3.56823 21.8993 2.46423 20.539 2.46423H2.461C1.10071 2.46423 0 3.56823 0 4.92852V8.26352C0.000218427 8.44488 0.0604482 8.62106 0.171296 8.7646C0.282144 8.90814 0.437377 9.01095 0.612786 9.05702C1.15308 9.1983 1.6313 9.51472 1.9726 9.95675C2.3139 10.3988 2.49904 10.9415 2.49904 11.4999C2.49904 12.0584 2.3139 12.6011 1.9726 13.0431C1.6313 13.4852 1.15308 13.8016 0.612786 13.9429C0.437377 13.9889 0.282144 14.0918 0.171296 14.2353C0.0604482 14.3788 0.000218427 14.555 0 14.7364L0 18.0714ZM8.15186 16.3332L16.3661 8.11895C16.5495 7.92471 16.6499 7.66669 16.6461 7.39963C16.6423 7.13258 16.5346 6.8775 16.3459 6.68854C16.1571 6.49957 15.9022 6.39159 15.6351 6.38751C15.3681 6.38342 15.1099 6.48356 14.9155 6.66666L6.70121 14.8809C6.6012 14.9751 6.5211 15.0884 6.46566 15.2141C6.41022 15.3398 6.38058 15.4754 6.37848 15.6128C6.37638 15.7501 6.40186 15.8865 6.45343 16.0139C6.505 16.1412 6.58159 16.2569 6.67869 16.3541C6.77578 16.4513 6.89139 16.528 7.01867 16.5797C7.14595 16.6314 7.28231 16.6571 7.41968 16.6551C7.55705 16.6532 7.69264 16.6237 7.8184 16.5684C7.94417 16.5131 8.05756 16.4331 8.15186 16.3332ZM6.60593 8.21423C6.60593 7.77852 6.77902 7.36065 7.08711 7.05256C7.39521 6.74446 7.81307 6.57138 8.24879 6.57138C8.6845 6.57138 9.10237 6.74446 9.41046 7.05256C9.71856 7.36065 9.89164 7.77852 9.89164 8.21423C9.89164 8.64995 9.71856 9.06781 9.41046 9.37591C9.10237 9.684 8.6845 9.85709 8.24879 9.85709C7.81307 9.85709 7.39521 9.684 7.08711 9.37591C6.77902 9.06781 6.60593 8.64995 6.60593 8.21423ZM13.1774 14.7857C13.1774 14.3499 13.3504 13.9321 13.6585 13.624C13.9666 13.3159 14.3845 13.1428 14.8202 13.1428C15.2559 13.1428 15.6738 13.3159 15.9819 13.624C16.29 13.9321 16.4631 14.3499 16.4631 14.7857C16.4631 15.2214 16.29 15.6392 15.9819 15.9473C15.6738 16.2554 15.2559 16.4285 14.8202 16.4285C14.3845 16.4285 13.9666 16.2554 13.6585 15.9473C13.3504 15.6392 13.1774 15.2214 13.1774 14.7857Z" fill="#8E8E8E"/>
</g>
<defs>
<clipPath id="clip0_314_52">
<rect width="23" height="23" fill="white"/>
</clipPath>
</defs>
</svg>
