<svg width="20" height="22" viewBox="0 0 20 22" fill="none" xmlns="http://www.w3.org/2000/svg">
<path d="M9 7C13.4183 7 17 5.65685 17 4C17 2.34315 13.4183 1 9 1C4.58172 1 1 2.34315 1 4C1 5.65685 4.58172 7 9 7Z" stroke="black" stroke-width="1.5" stroke-linecap="round" stroke-linejoin="round"/>
<path d="M4 9.84204C4.602 10.022 5.274 10.172 6 10.282M1 11C1 12.53 4.054 13.792 8 13.977M4 16.842C4.602 17.022 5.274 17.172 6 17.282" stroke="black" stroke-width="1.5" stroke-linecap="round" stroke-linejoin="round"/>
<path d="M9 21C4.582 21 1 19.657 1 18V4M17 4V10M15 21V19.714C14.4564 19.7178 13.9201 19.5897 13.4369 19.3406C12.9537 19.0915 12.5382 18.729 12.226 18.284M15 19.713C15.5436 19.7168 16.0799 19.5887 16.5631 19.3396C17.0463 19.0905 17.4618 18.728 17.774 18.283M15 13.285C16.157 13.285 17.176 13.853 17.774 14.715C18.1383 15.2382 18.3337 15.8614 18.3337 16.499C18.3337 17.1366 18.1383 17.7588 17.774 18.282L19 19.07M12.226 14.717C12.5382 14.272 12.9537 13.9095 13.4369 13.6604C13.9201 13.4113 14.4564 13.2832 15 13.287V12M19 13.929L17.774 14.717M11 19.07L12.226 18.282C11.8617 17.7588 11.6663 17.1366 11.6663 16.499C11.6663 15.8614 11.8617 15.2392 12.226 14.716M11 13.93L12.226 14.718" stroke="black" stroke-width="1.5" stroke-linecap="round" stroke-linejoin="round"/>
</svg>
