<svg width="737" height="737" viewBox="0 0 737 737" fill="none" xmlns="http://www.w3.org/2000/svg">
<rect width="737" height="737" rx="200" fill="white"/>
<path d="M231.188 388.048C303.086 457.143 408.875 481.348 435.971 485.696C417.397 357.416 293.839 267.104 162.401 294.007C144.741 446.834 297.211 561.034 437.893 504.112C437.888 504.002 437.877 503.896 437.87 503.788C288.611 485.576 231.188 388.048 231.188 388.048Z" fill="#019934"/>
<path d="M562.44 294.007C547.483 290.945 531.995 289.336 516.133 289.336C462.764 289.336 413.685 307.591 374.692 338.13C394.42 356.258 411.162 377.603 424.147 401.325C454.836 383.929 502.421 354.574 519.173 330.626C498.193 368.836 473.325 386.34 431.248 415.389C443 440.576 450.661 468.08 453.236 497.113C518.83 463.91 563.834 395.927 563.834 317.376C563.833 309.464 563.326 301.678 562.44 294.007Z" fill="#019934"/>
<path d="M307.667 213.915L322.253 299.34C332.858 304.068 343.031 309.635 352.697 315.949L325.693 210.084C346.02 200.671 358.465 170.355 351.677 138.421C344.154 103.023 315.853 79.0491 288.461 84.8711C261.07 90.6932 244.968 124.106 252.49 159.504C259.278 191.439 282.981 214.068 307.667 213.915Z" fill="#F6921E"/>
<path d="M402.346 215.669L377.203 314.241C386.741 308.188 396.649 302.912 406.888 298.465L420.37 219.503C442.766 219.168 459.604 195.078 466.394 163.142C468.615 152.69 473.758 124.444 470.05 106.732C469.759 105.325 468.521 104.316 467.081 104.316C465.644 104.314 464.407 105.317 464.103 106.722L450.234 171.99C449.934 173.409 449.078 174.652 447.861 175.437C446.646 176.23 445.164 176.504 443.743 176.204L443.429 176.136C440.474 175.508 438.588 172.602 439.212 169.647L453.02 104.7C453.705 101.487 451.655 98.3322 448.442 97.6492L448.334 97.6272C446.791 97.2992 445.182 97.5972 443.859 98.4562C442.536 99.3142 441.612 100.664 441.284 102.205L427.476 167.152C427.171 168.573 426.322 169.812 425.103 170.604C423.888 171.397 422.406 171.671 420.985 171.369L420.675 171.301C417.72 170.672 415.83 167.767 416.461 164.812L430.262 99.8642C430.59 98.3222 430.29 96.7122 429.434 95.3912C428.573 94.0682 427.223 93.1412 425.684 92.8112C422.41 92.1182 419.197 94.2052 418.503 97.4762L404.723 162.315C404.42 163.736 403.567 164.979 402.35 165.767C401.131 166.557 399.648 166.831 398.232 166.531L397.918 166.463C394.963 165.837 393.077 162.929 393.704 159.972L407.637 94.4282C407.928 93.0672 407.252 91.6842 406.004 91.0712C404.757 90.4582 403.246 90.7702 402.346 91.8312C390.738 105.541 383.439 133.218 380.939 144.977C374.152 176.913 379.731 205.77 402.346 215.669Z" fill="#F6921E"/>
<path d="M155.12 607V571.992L153.84 565.592L155.12 561.688H176.816C179.845 561.688 182.768 561.987 185.584 562.584C188.443 563.139 190.981 564.205 193.2 565.784C195.461 567.363 197.253 569.624 198.576 572.568C199.899 575.512 200.56 579.331 200.56 584.024C200.56 588.717 199.877 592.579 198.512 595.608C197.189 598.595 195.397 600.92 193.136 602.584C190.875 604.248 188.336 605.4 185.52 606.04C182.704 606.68 179.803 607 176.816 607H155.12ZM169.328 594.84H174.192C176.709 594.84 178.821 594.563 180.528 594.008C182.277 593.453 183.6 592.408 184.496 590.872C185.392 589.293 185.84 587.011 185.84 584.024C185.84 580.995 185.371 578.776 184.432 577.368C183.536 575.917 182.213 574.979 180.464 574.552C178.757 574.083 176.667 573.848 174.192 573.848H169.328V594.84ZM208.245 607L206.965 603.16L208.245 596.76V561.688H241.205L244.405 563.608L240.181 574.488L234.421 573.848H222.453V578.968H238.261V589.528H229.429L222.453 588.888V594.84H240.181L247.797 602.904L244.021 607H208.245ZM268.613 607.64C266.266 607.64 263.941 607.427 261.637 607C259.375 606.616 257.37 606.104 255.621 605.464C253.871 604.824 252.613 604.184 251.845 603.544V590.168C253.466 591.064 255.279 591.875 257.285 592.6C259.29 593.325 261.317 593.901 263.365 594.328C265.455 594.712 267.439 594.904 269.317 594.904C271.919 594.904 273.221 594.307 273.221 593.112C273.221 592.515 272.943 592.024 272.389 591.64C271.877 591.213 270.959 590.765 269.637 590.296C268.314 589.827 266.437 589.229 264.005 588.504C261.189 587.608 258.778 586.669 256.773 585.688C254.81 584.707 253.295 583.448 252.229 581.912C251.205 580.376 250.693 578.328 250.693 575.768C250.693 571.331 252.463 567.768 256.005 565.08C259.546 562.392 264.73 561.048 271.557 561.048C272.922 561.048 274.373 561.112 275.909 561.24C277.487 561.325 278.746 561.453 279.685 561.624L287.557 566.936L284.357 576.664L267.973 572.504C266.266 572.504 265.413 573.08 265.413 574.232C265.413 575.128 265.946 575.875 267.013 576.472C268.122 577.027 270.106 577.795 272.965 578.776C276.762 580.056 279.77 581.379 281.989 582.744C284.25 584.067 285.871 585.581 286.853 587.288C287.834 588.995 288.325 591.021 288.325 593.368C288.325 597.635 286.682 601.091 283.397 603.736C280.111 606.339 275.183 607.64 268.613 607.64ZM295.48 607V571.992L294.84 565.592L295.48 561.688H309.56V579.032H322.936V561.688H337.016V585.752L337.656 590.168V607H322.936V590.744H309.56V595.224L310.2 607H295.48ZM345.98 607V571.928L345.34 565.528L345.98 561.688H360.124V607H345.98Z" fill="#019934"/>
<path d="M384.433 607V571.992L383.153 565.592L384.497 561.752H399.409L411.953 584.152H413.233L423.601 561.752H438.897L439.537 565.592L438.897 571.736V607H424.753L424.945 601.56V583.704H424.241L421.809 590.424L417.201 600.6H406.961L399.409 583.704H398.769V588.888L399.409 607H384.433ZM444.015 607L447.087 596.184V588.056L451.823 586.136L460.783 561.752H480.047L490.991 590.424L495.919 599.512V607H482.031L478.831 597.464H461.487L458.735 607H444.015ZM465.711 586.264H475.311L471.087 573.528H469.743L465.711 586.264ZM501.683 607V571.992L500.403 565.528L501.683 561.688H524.723C528.179 561.688 531.144 562.243 533.619 563.352C536.093 564.461 537.992 566.253 539.315 568.728C540.637 571.16 541.299 574.381 541.299 578.392C541.299 582.104 540.68 585.155 539.443 587.544C538.205 589.933 536.392 591.747 534.003 592.984L535.091 593.88L539.507 599.896L543.155 603.16V607H526.195L519.155 595.288H515.763V596.696L516.403 603.096L515.763 607H501.683ZM515.763 583.32H519.475C520.968 583.32 522.248 583.256 523.315 583.128C524.424 583 525.277 582.616 525.875 581.976C526.472 581.293 526.771 580.205 526.771 578.712C526.771 577.133 526.451 576.003 525.811 575.32C525.171 574.637 524.275 574.232 523.123 574.104C522.013 573.933 520.712 573.848 519.219 573.848H515.123L515.763 583.32ZM557.893 607V573.912L545.093 574.552V561.688H585.093V574.552L571.973 573.912V596.76L572.677 603.16L571.973 607H557.893Z" fill="black"/>
<path d="M302.04 630.1C303.52 630.1 304.813 630.387 305.92 630.96C307.04 631.52 307.9 632.333 308.5 633.4C309.113 634.453 309.42 635.687 309.42 637.1C309.42 638.513 309.113 639.74 308.5 640.78C307.9 641.82 307.04 642.62 305.92 643.18C304.813 643.727 303.52 644 302.04 644H297.5V630.1H302.04ZM302.04 642.14C303.667 642.14 304.913 641.7 305.78 640.82C306.647 639.94 307.08 638.7 307.08 637.1C307.08 635.487 306.647 634.227 305.78 633.32C304.913 632.413 303.667 631.96 302.04 631.96H299.78V642.14H302.04ZM321.78 638.22C321.78 638.633 321.753 639.007 321.7 639.34H313.28C313.346 640.22 313.673 640.927 314.26 641.46C314.846 641.993 315.566 642.26 316.42 642.26C317.646 642.26 318.513 641.747 319.02 640.72H321.48C321.146 641.733 320.54 642.567 319.66 643.22C318.793 643.86 317.713 644.18 316.42 644.18C315.366 644.18 314.42 643.947 313.58 643.48C312.753 643 312.1 642.333 311.62 641.48C311.153 640.613 310.92 639.613 310.92 638.48C310.92 637.347 311.146 636.353 311.6 635.5C312.066 634.633 312.713 633.967 313.54 633.5C314.38 633.033 315.34 632.8 316.42 632.8C317.46 632.8 318.386 633.027 319.2 633.48C320.013 633.933 320.646 634.573 321.1 635.4C321.553 636.213 321.78 637.153 321.78 638.22ZM319.4 637.5C319.386 636.66 319.086 635.987 318.5 635.48C317.913 634.973 317.186 634.72 316.32 634.72C315.533 634.72 314.86 634.973 314.3 635.48C313.74 635.973 313.406 636.647 313.3 637.5H319.4ZM328.023 644.18C327.157 644.18 326.377 644.027 325.683 643.72C325.003 643.4 324.463 642.973 324.063 642.44C323.663 641.893 323.45 641.287 323.423 640.62H325.783C325.823 641.087 326.043 641.48 326.443 641.8C326.857 642.107 327.37 642.26 327.983 642.26C328.623 642.26 329.117 642.14 329.463 641.9C329.823 641.647 330.003 641.327 330.003 640.94C330.003 640.527 329.803 640.22 329.403 640.02C329.017 639.82 328.397 639.6 327.543 639.36C326.717 639.133 326.043 638.913 325.523 638.7C325.003 638.487 324.55 638.16 324.163 637.72C323.79 637.28 323.603 636.7 323.603 635.98C323.603 635.393 323.777 634.86 324.123 634.38C324.47 633.887 324.963 633.5 325.603 633.22C326.257 632.94 327.003 632.8 327.843 632.8C329.097 632.8 330.103 633.12 330.863 633.76C331.637 634.387 332.05 635.247 332.103 636.34H329.823C329.783 635.847 329.583 635.453 329.223 635.16C328.863 634.867 328.377 634.72 327.763 634.72C327.163 634.72 326.703 634.833 326.383 635.06C326.063 635.287 325.903 635.587 325.903 635.96C325.903 636.253 326.01 636.5 326.223 636.7C326.437 636.9 326.697 637.06 327.003 637.18C327.31 637.287 327.763 637.427 328.363 637.6C329.163 637.813 329.817 638.033 330.323 638.26C330.843 638.473 331.29 638.793 331.663 639.22C332.037 639.647 332.23 640.213 332.243 640.92C332.243 641.547 332.07 642.107 331.723 642.6C331.377 643.093 330.883 643.48 330.243 643.76C329.617 644.04 328.877 644.18 328.023 644.18ZM340.407 632.8C341.247 632.8 341.994 632.98 342.647 633.34C343.314 633.7 343.834 634.233 344.207 634.94C344.594 635.647 344.787 636.5 344.787 637.5V644H342.527V637.84C342.527 636.853 342.28 636.1 341.787 635.58C341.294 635.047 340.62 634.78 339.767 634.78C338.914 634.78 338.234 635.047 337.727 635.58C337.234 636.1 336.987 636.853 336.987 637.84V644H334.707V629.2H336.987V634.26C337.374 633.793 337.86 633.433 338.447 633.18C339.047 632.927 339.7 632.8 340.407 632.8ZM357.251 638.5L362.331 644H359.251L355.171 639.26V644H352.891V629.2H355.171V637.8L359.171 632.98H362.331L357.251 638.5ZM363.205 638.44C363.205 637.333 363.432 636.353 363.885 635.5C364.352 634.647 364.978 633.987 365.765 633.52C366.565 633.04 367.445 632.8 368.405 632.8C369.272 632.8 370.025 632.973 370.665 633.32C371.318 633.653 371.838 634.073 372.225 634.58V632.98H374.525V644H372.225V642.36C371.838 642.88 371.312 643.313 370.645 643.66C369.978 644.007 369.218 644.18 368.365 644.18C367.418 644.18 366.552 643.94 365.765 643.46C364.978 642.967 364.352 642.287 363.885 641.42C363.432 640.54 363.205 639.547 363.205 638.44ZM372.225 638.48C372.225 637.72 372.065 637.06 371.745 636.5C371.438 635.94 371.032 635.513 370.525 635.22C370.018 634.927 369.472 634.78 368.885 634.78C368.298 634.78 367.752 634.927 367.245 635.22C366.738 635.5 366.325 635.92 366.005 636.48C365.698 637.027 365.545 637.68 365.545 638.44C365.545 639.2 365.698 639.867 366.005 640.44C366.325 641.013 366.738 641.453 367.245 641.76C367.765 642.053 368.312 642.2 368.885 642.2C369.472 642.2 370.018 642.053 370.525 641.76C371.032 641.467 371.438 641.04 371.745 640.48C372.065 639.907 372.225 639.24 372.225 638.48ZM396.055 632.8C396.922 632.8 397.695 632.98 398.375 633.34C399.068 633.7 399.608 634.233 399.995 634.94C400.395 635.647 400.595 636.5 400.595 637.5V644H398.335V637.84C398.335 636.853 398.088 636.1 397.595 635.58C397.102 635.047 396.428 634.78 395.575 634.78C394.722 634.78 394.042 635.047 393.535 635.58C393.042 636.1 392.795 636.853 392.795 637.84V644H390.535V637.84C390.535 636.853 390.288 636.1 389.795 635.58C389.302 635.047 388.628 634.78 387.775 634.78C386.922 634.78 386.242 635.047 385.735 635.58C385.242 636.1 384.995 636.853 384.995 637.84V644H382.715V632.98H384.995V634.24C385.368 633.787 385.842 633.433 386.415 633.18C386.988 632.927 387.602 632.8 388.255 632.8C389.135 632.8 389.922 632.987 390.615 633.36C391.308 633.733 391.842 634.273 392.215 634.98C392.548 634.313 393.068 633.787 393.775 633.4C394.482 633 395.242 632.8 396.055 632.8ZM402.736 638.44C402.736 637.333 402.963 636.353 403.416 635.5C403.883 634.647 404.509 633.987 405.296 633.52C406.096 633.04 406.976 632.8 407.936 632.8C408.803 632.8 409.556 632.973 410.196 633.32C410.849 633.653 411.369 634.073 411.756 634.58V632.98H414.056V644H411.756V642.36C411.369 642.88 410.843 643.313 410.176 643.66C409.509 644.007 408.749 644.18 407.896 644.18C406.949 644.18 406.083 643.94 405.296 643.46C404.509 642.967 403.883 642.287 403.416 641.42C402.963 640.54 402.736 639.547 402.736 638.44ZM411.756 638.48C411.756 637.72 411.596 637.06 411.276 636.5C410.969 635.94 410.563 635.513 410.056 635.22C409.549 634.927 409.003 634.78 408.416 634.78C407.829 634.78 407.283 634.927 406.776 635.22C406.269 635.5 405.856 635.92 405.536 636.48C405.229 637.027 405.076 637.68 405.076 638.44C405.076 639.2 405.229 639.867 405.536 640.44C405.856 641.013 406.269 641.453 406.776 641.76C407.296 642.053 407.843 642.2 408.416 642.2C409.003 642.2 409.549 642.053 410.056 641.76C410.563 641.467 410.969 641.04 411.276 640.48C411.596 639.907 411.756 639.24 411.756 638.48ZM419.331 634.58C419.664 634.02 420.104 633.587 420.651 633.28C421.211 632.96 421.871 632.8 422.631 632.8V635.16H422.051C421.157 635.16 420.477 635.387 420.011 635.84C419.557 636.293 419.331 637.08 419.331 638.2V644H417.051V632.98H419.331V634.58ZM429.087 638.5L434.167 644H431.087L427.007 639.26V644H424.727V629.2H427.007V637.8L431.007 632.98H434.167L429.087 638.5ZM445.901 638.22C445.901 638.633 445.874 639.007 445.821 639.34H437.401C437.467 640.22 437.794 640.927 438.381 641.46C438.967 641.993 439.687 642.26 440.541 642.26C441.767 642.26 442.634 641.747 443.141 640.72H445.601C445.267 641.733 444.661 642.567 443.781 643.22C442.914 643.86 441.834 644.18 440.541 644.18C439.487 644.18 438.541 643.947 437.701 643.48C436.874 643 436.221 642.333 435.741 641.48C435.274 640.613 435.041 639.613 435.041 638.48C435.041 637.347 435.267 636.353 435.721 635.5C436.187 634.633 436.834 633.967 437.661 633.5C438.501 633.033 439.461 632.8 440.541 632.8C441.581 632.8 442.507 633.027 443.321 633.48C444.134 633.933 444.767 634.573 445.221 635.4C445.674 636.213 445.901 637.153 445.901 638.22ZM443.521 637.5C443.507 636.66 443.207 635.987 442.621 635.48C442.034 634.973 441.307 634.72 440.441 634.72C439.654 634.72 438.981 634.973 438.421 635.48C437.861 635.973 437.527 636.647 437.421 637.5H443.521ZM450.805 634.84V640.94C450.805 641.353 450.898 641.653 451.085 641.84C451.285 642.013 451.618 642.1 452.085 642.1H453.485V644H451.685C450.658 644 449.871 643.76 449.325 643.28C448.778 642.8 448.505 642.02 448.505 640.94V634.84H447.205V632.98H448.505V630.24H450.805V632.98H453.485V634.84H450.805Z" fill="#7C7C7C"/>
</svg>
