<svg width="18" height="22" viewBox="0 0 18 22" fill="none" xmlns="http://www.w3.org/2000/svg">
<path d="M4.429 2.36199C8.399 -0.336005 14.136 1.12399 16.23 5.41799M7.857 20.924C12.584 21.582 17 17.895 17 13.21V9.333M4.429 19.606C2.356 18.198 1 15.858 1 13.21V8.758C1 7.573 1.271 6.44999 1.757 5.44399" stroke="black" stroke-width="1.5" stroke-linecap="round" stroke-linejoin="round"/>
<path d="M13 12.8C13 15.12 11.21 17 9 17C6.79 17 5 15.12 5 12.8V9.2C5 8.556 5.138 7.946 5.385 7.4M9 5C11.21 5 13 6.88 13 9.2M9 9.5V12.5" stroke="black" stroke-width="1.5" stroke-linecap="round" stroke-linejoin="round"/>
</svg>
