<svg width="29" height="29" viewBox="0 0 29 29" fill="none" xmlns="http://www.w3.org/2000/svg">
<path d="M5.93294 9.60832L6.69128 8.83541C7.53711 7.98957 8.93711 7.98957 9.81211 8.89374L9.84128 8.93749C10.5559 9.66666 11.5038 10.0167 12.5392 10.1187C13.9538 10.25 15.3246 11.0083 16.2288 12.3792C17.2204 13.9542 17.2059 16.0542 16.1704 17.6146C15.7799 18.2322 15.2547 18.7534 14.6342 19.1393C14.0137 19.5251 13.314 19.7657 12.5874 19.8428C11.8608 19.92 11.1261 19.8317 10.4384 19.5848C9.75071 19.3378 9.12779 18.9385 8.61628 18.4167C7.79961 17.6146 7.33294 16.5792 7.21628 15.5C7.09961 14.4354 6.67669 13.4292 5.93294 12.6854C5.08711 11.8542 5.08711 10.4542 5.93294 9.60832ZM12.0579 21.3333C10.3517 21.3333 8.76211 20.6771 7.58086 19.4667C6.56003 18.4167 5.91836 17.1042 5.75794 15.675C5.71419 15.2375 5.58294 14.6687 5.23294 14.1437C4.35794 15.3542 3.83294 16.8125 3.83294 18.4167C3.83294 20.8083 4.99961 22.9229 6.79336 24.25H25.7079V22.7917C25.7079 17.5417 22.2225 13.0937 17.4538 11.6354C18.7517 13.6771 18.7225 16.4042 17.3954 18.4167C16.2288 20.2396 14.2163 21.3333 12.0579 21.3333ZM19.5538 9.02499H21.4059C22.6746 9.02499 23.7829 9.91457 23.7829 11.5042V12.5833H25.6059V11.125C25.6059 8.93749 23.6663 7.27499 21.4059 7.27499H19.5538C18.3434 7.27499 17.3079 6.07916 17.3079 4.85416C17.3079 3.62916 18.3434 2.72499 19.5538 2.72499V0.916656C17.3079 0.916656 15.4996 2.72499 15.4996 4.97082C15.4996 7.21666 17.3079 9.02499 19.5538 9.02499ZM4.56211 9.01041C4.64961 8.86457 4.76628 8.71874 4.89753 8.57291L5.65586 7.81457C5.78711 7.68332 5.93294 7.58124 6.07878 7.47916L4.02253 5.39374C4.22669 4.99999 4.15378 4.48957 3.83294 4.15416C3.62411 3.95087 3.34417 3.83712 3.05273 3.83712C2.76129 3.83712 2.48136 3.95087 2.27253 4.15416C2.06836 4.35832 1.96628 4.60624 1.95169 4.86874C1.68919 4.88332 1.44128 4.98541 1.23711 5.18957C0.814193 5.61249 0.814193 6.31249 1.23711 6.74999C1.57253 7.07082 2.06836 7.14374 2.47669 6.93957L4.56211 9.01041ZM24.8184 4.40207C25.5621 3.65832 26.0288 2.65207 26.0288 1.52916H24.2059C24.2059 2.73957 23.185 3.76041 21.9746 3.76041V5.56874C24.6871 5.56874 26.8163 7.78541 26.8163 10.4979V14.0417H28.6246V10.4979C28.6319 9.22581 28.2781 7.97776 27.6044 6.89872C26.9306 5.81968 25.9645 4.95394 24.8184 4.40207ZM5.29128 28.625H25.7079C27.3267 28.625 28.6246 27.3271 28.6246 25.7083H2.37461C2.37461 26.4819 2.6819 27.2237 3.22888 27.7707C3.77586 28.3177 4.51773 28.625 5.29128 28.625Z" fill="#F6921E"/>
</svg>
