<svg width="22" height="22" viewBox="0 0 22 22" fill="none" xmlns="http://www.w3.org/2000/svg">
<path d="M13.4999 14.5L11.9999 13M5.99989 10L7.49989 11.5M7.99989 18L6.99989 17M13.9999 1C14.5179 1.519 14.8549 2.633 13.9999 4.111M20.9999 8C20.4819 7.481 19.3669 7.144 17.8899 8M18.2779 3.722L16.3339 5.666M7.19989 8.075C5.09989 10.177 -0.365108 19.002 1.31589 20.684C2.99789 22.364 11.8229 16.901 13.9249 14.8C16.0249 12.698 17.2869 11.438 13.9249 8.075C10.5629 4.712 9.30189 5.975 7.19989 8.075Z" stroke="black" stroke-width="1.5" stroke-linecap="round" stroke-linejoin="round"/>
</svg>
