<svg width="31" height="31" viewBox="0 0 31 31" fill="none" xmlns="http://www.w3.org/2000/svg">
<path d="M15.5003 0.916656C7.47949 0.916656 0.916992 7.47916 0.916992 15.5C0.916992 23.5208 7.47949 30.0833 15.5003 30.0833C23.5212 30.0833 30.0837 23.5208 30.0837 15.5C30.0837 7.47916 23.5212 0.916656 15.5003 0.916656ZM12.0003 23.0833C11.6795 23.0833 11.242 22.9667 10.8337 22.7917L10.0024 24.8333L8.33991 24.25L8.57324 23.6812C10.3232 19.2771 12.3357 14.2604 19.8753 12.5833C19.8753 12.5833 11.1253 12.5833 8.28158 20.6771C8.28158 20.6771 6.75033 19.1458 6.75033 17.3958C6.75033 15.6458 8.50032 11.9271 12.8753 11.0521C14.1149 10.8042 15.5003 10.6146 16.8712 10.3958C20.3128 9.92916 23.6232 9.46249 24.2503 8.20832C24.2503 8.20832 21.6253 23.0833 12.0003 23.0833Z" fill="#019934"/>
</svg>
