<svg width="25" height="26" viewBox="0 0 25 26" fill="none" xmlns="http://www.w3.org/2000/svg">
<path fill-rule="evenodd" clip-rule="evenodd" d="M12.5632 0.510437H12.4375C11.3512 0.510437 10.4462 0.510437 9.72841 0.607104C8.96958 0.708604 8.28445 0.933354 7.73466 1.48315C7.18366 2.03415 6.95891 2.71927 6.85741 3.4769C6.78853 3.99285 6.76799 5.22415 6.76316 6.28023C4.31991 6.36119 2.85178 6.64635 1.83316 7.66619C0.416992 9.08114 0.416992 11.3601 0.416992 15.9167C0.416992 20.4733 0.416992 22.7522 1.83316 24.1672C3.24812 25.5834 5.52703 25.5834 10.0837 25.5834H14.917C19.4736 25.5834 21.7525 25.5834 23.1675 24.1672C24.5837 22.7522 24.5837 20.4733 24.5837 15.9167C24.5837 11.3601 24.5837 9.08114 23.1675 7.66619C22.1489 6.64635 20.6807 6.36119 18.2375 6.28144C18.2327 5.22415 18.2133 3.99285 18.1432 3.4781C18.0417 2.71927 17.817 2.03415 17.266 1.48435C16.7162 0.933354 16.0311 0.708604 15.2722 0.607104C14.5545 0.510437 13.6482 0.510437 12.5632 0.510437ZM16.425 6.25244C16.4189 5.22898 16.402 4.12819 16.3477 3.71856C16.2715 3.16152 16.1422 2.92227 15.9852 2.76519C15.8281 2.6081 15.5888 2.47881 15.0306 2.40269C14.4482 2.32535 13.6652 2.32294 12.5003 2.32294C11.3355 2.32294 10.5525 2.32535 9.96887 2.4039C9.41182 2.47881 9.17258 2.6081 9.01549 2.7664C8.85841 2.92348 8.72912 3.16152 8.65299 3.71856C8.59862 4.1294 8.58049 5.22898 8.57566 6.25244C9.04812 6.25002 9.55199 6.25002 10.0837 6.25002H14.917C15.4499 6.25002 15.9525 6.25002 16.425 6.25244ZM12.5003 10.1771C12.7407 10.1771 12.9712 10.2726 13.1411 10.4425C13.3111 10.6125 13.4066 10.843 13.4066 11.0834V11.0954C14.7224 11.4265 15.8232 12.4645 15.8232 13.9024C15.8232 14.1427 15.7278 14.3733 15.5578 14.5432C15.3879 14.7132 15.1573 14.8086 14.917 14.8086C14.6766 14.8086 14.4461 14.7132 14.2762 14.5432C14.1062 14.3733 14.0107 14.1427 14.0107 13.9024C14.0107 13.4384 13.496 12.7956 12.5003 12.7956C11.5047 12.7956 10.9899 13.4384 10.9899 13.9024C10.9899 14.3664 11.5047 15.0104 12.5003 15.0104C14.1739 15.0104 15.8232 16.1704 15.8232 17.931C15.8232 19.3689 14.7224 20.4056 13.4066 20.7379V20.75C13.4066 20.9904 13.3111 21.2209 13.1411 21.3908C12.9712 21.5608 12.7407 21.6563 12.5003 21.6563C12.26 21.6563 12.0295 21.5608 11.8595 21.3908C11.6896 21.2209 11.5941 20.9904 11.5941 20.75V20.7379C10.2782 20.4069 9.17741 19.3689 9.17741 17.931C9.17741 17.6906 9.27289 17.4601 9.44284 17.2902C9.6128 17.1202 9.84331 17.0247 10.0837 17.0247C10.324 17.0247 10.5545 17.1202 10.7245 17.2902C10.8944 17.4601 10.9899 17.6906 10.9899 17.931C10.9899 18.395 11.5047 19.0378 12.5003 19.0378C13.496 19.0378 14.0107 18.395 14.0107 17.931C14.0107 17.467 13.496 16.8229 12.5003 16.8229C10.8268 16.8229 9.17741 15.6629 9.17741 13.9024C9.17741 12.4645 10.2782 11.4265 11.5941 11.0954V11.0834C11.5941 10.843 11.6896 10.6125 11.8595 10.4425C12.0295 10.2726 12.26 10.1771 12.5003 10.1771Z" fill="#019934"/>
</svg>
