<svg width="20" height="22" viewBox="0 0 20 22" fill="none" xmlns="http://www.w3.org/2000/svg">
<path d="M3.158 10.4909C3.085 11.8869 3.169 13.3729 1.922 14.3079C1.63531 14.5224 1.40266 14.801 1.24259 15.1213C1.08253 15.4416 0.999458 15.7948 1 16.1529C1 17.1499 1.782 17.9999 2.8 17.9999H17.2C18.218 17.9999 19 17.1499 19 16.1529C19 15.4269 18.658 14.7429 18.078 14.3079C16.831 13.3729 16.915 11.8869 16.842 10.4909C16.752 8.737 15.9919 7.08462 14.7186 5.87501C13.4454 4.66541 11.7562 3.99097 10 3.99097C8.24378 3.99097 6.55462 4.66541 5.28136 5.87501C4.0081 7.08462 3.24799 8.737 3.158 10.4909Z" stroke="black" stroke-width="1.5" stroke-linecap="round" stroke-linejoin="round"/>
<path d="M13 18C13 18.7956 12.6839 19.5587 12.1213 20.1213C11.5587 20.6839 10.7956 21 10 21C9.20435 21 8.44129 20.6839 7.87868 20.1213C7.31607 19.5587 7 18.7956 7 18M8.5 2.125C8.5 2.953 9.172 4 10 4C10.828 4 11.5 2.953 11.5 2.125C11.5 1.297 10.828 1 10 1C9.172 1 8.5 1.297 8.5 2.125Z" stroke="black" stroke-width="1.5" stroke-linecap="round" stroke-linejoin="round"/>
</svg>
