<svg width="31" height="31" viewBox="0 0 31 31" fill="none" xmlns="http://www.w3.org/2000/svg">
<path fill-rule="evenodd" clip-rule="evenodd" d="M7.21517 5.92354C6.45825 6.68046 6.45825 7.89721 6.45825 10.3333V21.9583C6.45825 24.3944 6.45825 25.6111 7.21517 26.368C7.97209 27.125 9.18884 27.125 11.6249 27.125H19.3749C21.811 27.125 23.0278 27.125 23.7847 26.368C24.5416 25.6111 24.5416 24.3944 24.5416 21.9583V10.3333C24.5416 7.89721 24.5416 6.68046 23.7847 5.92354C23.0278 5.16663 21.811 5.16663 19.3749 5.16663H11.6249C9.18884 5.16663 7.97209 5.16663 7.21517 5.92354ZM11.6249 10.3333C11.2823 10.3333 10.9538 10.4694 10.7116 10.7116C10.4693 10.9538 10.3333 11.2824 10.3333 11.625C10.3333 11.9675 10.4693 12.2961 10.7116 12.5383C10.9538 12.7805 11.2823 12.9166 11.6249 12.9166H19.3749C19.7175 12.9166 20.046 12.7805 20.2883 12.5383C20.5305 12.2961 20.6666 11.9675 20.6666 11.625C20.6666 11.2824 20.5305 10.9538 20.2883 10.7116C20.046 10.4694 19.7175 10.3333 19.3749 10.3333H11.6249ZM11.6249 15.5C11.2823 15.5 10.9538 15.636 10.7116 15.8783C10.4693 16.1205 10.3333 16.4491 10.3333 16.7916C10.3333 17.1342 10.4693 17.4627 10.7116 17.705C10.9538 17.9472 11.2823 18.0833 11.6249 18.0833H19.3749C19.7175 18.0833 20.046 17.9472 20.2883 17.705C20.5305 17.4627 20.6666 17.1342 20.6666 16.7916C20.6666 16.4491 20.5305 16.1205 20.2883 15.8783C20.046 15.636 19.7175 15.5 19.3749 15.5H11.6249ZM11.6249 20.6666C11.2823 20.6666 10.9538 20.8027 10.7116 21.0449C10.4693 21.2872 10.3333 21.6157 10.3333 21.9583C10.3333 22.3009 10.4693 22.6294 10.7116 22.8716C10.9538 23.1139 11.2823 23.25 11.6249 23.25H16.7916C17.1342 23.25 17.4627 23.1139 17.7049 22.8716C17.9472 22.6294 18.0833 22.3009 18.0833 21.9583C18.0833 21.6157 17.9472 21.2872 17.7049 21.0449C17.4627 20.8027 17.1342 20.6666 16.7916 20.6666H11.6249Z" fill="white"/>
</svg>
