<svg width="16" height="22" viewBox="0 0 16 22" fill="none" xmlns="http://www.w3.org/2000/svg">
<path d="M5.426 2.063C6.684 1.354 7.312 1 8 1C8.688 1 9.316 1.354 10.574 2.063L12.324 3.049C13.629 3.784 14.282 4.152 14.641 4.767C15 5.382 15 6.132 15 7.632V9.368C15 10.868 15 11.618 14.64 12.233C14.282 12.848 13.63 13.216 12.324 13.951L10.574 14.937C9.316 15.646 8.688 16 8 16C7.312 16 6.684 15.646 5.426 14.937L3.676 13.951C2.371 13.216 1.718 12.848 1.359 12.233C1 11.618 1 10.868 1 9.368V7.632C1 6.132 1 5.382 1.36 4.767C1.718 4.152 2.37 3.784 3.676 3.049L5.426 2.063Z" stroke="black" stroke-width="1.5" stroke-linecap="round" stroke-linejoin="round"/>
<path d="M5.00007 9.167C5.00007 9.167 5.75007 9.167 6.50007 10.5C6.50007 10.5 8.88207 7.167 11.0001 6.5M12.8831 14L13.5531 17.21C13.9831 19.272 14.1991 20.303 13.7561 20.792C13.3141 21.281 12.5461 20.861 11.0101 20.02L8.73607 18.775C8.37307 18.577 8.19207 18.477 8.00007 18.477C7.80807 18.477 7.62707 18.577 7.26407 18.775L4.99007 20.02C3.45407 20.86 2.68607 21.281 2.24407 20.792C1.80207 20.303 2.01707 19.272 2.44707 17.21L3.11707 14" stroke="black" stroke-width="1.5" stroke-linecap="round" stroke-linejoin="round"/>
</svg>
