<svg width="20" height="22" viewBox="0 0 20 22" fill="none" xmlns="http://www.w3.org/2000/svg">
<path d="M6 21V18C6 16.114 6 15.172 6.586 14.586C7.172 14 8.114 14 10 14C11.886 14 12.828 14 13.414 14.586C14 15.172 14 16.114 14 18V21M8 6H12" stroke="black" stroke-width="1.5" stroke-linecap="round" stroke-linejoin="round"/>
<path d="M1 10.858C1 6.282 1 3.994 2.387 2.544C2.43816 2.49051 2.49051 2.43816 2.544 2.387C3.994 1 6.282 1 10.858 1C11.943 1 12.466 1.004 12.963 1.19C13.442 1.368 13.843 1.702 14.645 2.371L16.841 4.201C17.903 5.086 18.433 5.528 18.717 6.133C19 6.737 19 7.428 19 8.81V12C19 15.75 19 17.625 18.045 18.939C17.7366 19.3634 17.3634 19.7366 16.939 20.045C15.625 21 13.749 21 10 21C6.251 21 4.375 21 3.061 20.045C2.6366 19.7366 2.26336 19.3634 1.955 18.939C1 17.625 1 15.749 1 12V10.858Z" stroke="black" stroke-width="1.5" stroke-linecap="round" stroke-linejoin="round"/>
</svg>
