<svg width="25" height="28" viewBox="0 0 25 28" fill="none" xmlns="http://www.w3.org/2000/svg">
<path fill-rule="evenodd" clip-rule="evenodd" d="M11.4098 0.174967C12.0321 -0.0583225 12.7179 -0.0583225 13.3402 0.174967L22.9652 3.78434C23.4895 3.98088 23.9414 4.33277 24.2603 4.79298C24.5792 5.25319 24.7501 5.7998 24.75 6.35972V13.7338C24.75 16.0321 24.1101 18.2849 22.9019 20.2399C21.6937 22.1949 19.9649 23.7748 17.9094 24.8026L13.2976 27.1071C13.0112 27.2504 12.6953 27.325 12.375 27.325C12.0547 27.325 11.7388 27.2504 11.4524 27.1071L6.84063 24.8012C4.78505 23.7734 3.05631 22.1935 1.8481 20.2385C0.639885 18.2835 -4.90284e-05 16.0307 5.36473e-07 13.7325V6.36109C-0.000349263 5.80094 0.17037 5.25403 0.489319 4.79355C0.808268 4.33306 1.26023 3.98096 1.78475 3.78434L11.4098 0.174967ZM13.75 13.2883C14.2742 12.9856 14.6839 12.5184 14.9156 11.9592C15.1472 11.3999 15.1878 10.7798 15.0312 10.1951C14.8745 9.61036 14.5293 9.09368 14.049 8.72515C13.5688 8.35663 12.9803 8.15687 12.375 8.15684C11.7697 8.15687 11.1812 8.35663 10.701 8.72515C10.2207 9.09368 9.87551 9.61036 9.71883 10.1951C9.56215 10.7798 9.60278 11.3999 9.83442 11.9592C10.0661 12.5184 10.4758 12.9856 11 13.2883V17.7818C11 18.1465 11.1449 18.4963 11.4027 18.7541C11.6606 19.012 12.0103 19.1568 12.375 19.1568C12.7397 19.1568 13.0894 19.012 13.3473 18.7541C13.6051 18.4963 13.75 18.1465 13.75 17.7818V13.2883Z" fill="#FC0000"/>
</svg>
