<svg width="22" height="22" viewBox="0 0 22 22" fill="none" xmlns="http://www.w3.org/2000/svg">
<path d="M16.737 5.263L20.5 1.5M16.737 5.263C16.297 4.823 16.583 3.021 16.697 2M16.737 5.263C17.177 5.703 18.979 5.417 20 5.303M5.263 16.737L1.5 20.5M5.263 16.737C4.823 16.297 3.021 16.583 2 16.697M5.263 16.737C5.703 17.177 5.417 18.979 5.303 20M16.737 16.737L20.5 20.5M16.737 16.737C17.177 16.297 18.979 16.583 20 16.697M16.737 16.737C16.297 17.177 16.583 18.979 16.697 20M5.263 5.263L1.5 1.5M5.263 5.263C5.703 4.823 5.417 3.021 5.303 2M5.263 5.263C4.823 5.703 3.021 5.417 2 5.303M11 6C9.67392 6 8.40215 6.52678 7.46447 7.46447C6.52678 8.40215 6 9.67392 6 11C6 12.3261 6.52678 13.5979 7.46447 14.5355C8.40215 15.4732 9.67392 16 11 16C12.3261 16 13.5979 15.4732 14.5355 14.5355C15.4732 13.5979 16 12.3261 16 11C16 9.67392 15.4732 8.40215 14.5355 7.46447C13.5979 6.52678 12.3261 6 11 6Z" stroke="black" stroke-width="1.5" stroke-linecap="round" stroke-linejoin="round"/>
</svg>
